<mxfile host="app.diagrams.net" modified="2024-07-08T19:37:38.052Z" agent="Mozilla/5.0 (Windows NT 10.0; Win64; x64) AppleWebKit/537.36 (KHTML, like Gecko) Chrome/126.0.0.0 Safari/537.36" etag="pwnml0HQn357yBuatYO9" version="24.6.4" type="device">
  <diagram name="PÃ¡gina-1" id="9LgMjCHWUezpooN6W7IV">
    <mxGraphModel dx="838" dy="1582" grid="1" gridSize="10" guides="1" tooltips="1" connect="1" arrows="1" fold="1" page="1" pageScale="1" pageWidth="827" pageHeight="1169" math="0" shadow="0">
      <root>
        <mxCell id="0" />
        <mxCell id="1" parent="0" />
        <mxCell id="Hf4WoeYFId2QkuosLSl_-1" value="ZonaEstacionamiento" style="swimlane;fontStyle=1;align=center;verticalAlign=top;childLayout=stackLayout;horizontal=1;startSize=26;horizontalStack=0;resizeParent=1;resizeParentMax=0;resizeLast=0;collapsible=1;marginBottom=0;whiteSpace=wrap;html=1;" parent="1" vertex="1">
          <mxGeometry x="580" y="444" width="230" height="240" as="geometry">
            <mxRectangle x="590" y="444" width="160" height="30" as="alternateBounds" />
          </mxGeometry>
        </mxCell>
        <mxCell id="Hf4WoeYFId2QkuosLSl_-2" value="&lt;div&gt;&lt;span style=&quot;background-color: initial;&quot;&gt;- patentes : List&amp;lt;String&amp;gt;&amp;nbsp;&lt;/span&gt;&lt;br&gt;&lt;/div&gt;&lt;div&gt;&lt;span style=&quot;background-color: initial;&quot;&gt;- idInspector : int&lt;/span&gt;&lt;/div&gt;&lt;div&gt;&lt;span style=&quot;background-color: initial;&quot;&gt;- puntoGeografico : int&lt;/span&gt;&lt;/div&gt;" style="text;strokeColor=none;fillColor=none;align=left;verticalAlign=top;spacingLeft=4;spacingRight=4;overflow=hidden;rotatable=0;points=[[0,0.5],[1,0.5]];portConstraint=eastwest;whiteSpace=wrap;html=1;" parent="Hf4WoeYFId2QkuosLSl_-1" vertex="1">
          <mxGeometry y="26" width="230" height="54" as="geometry" />
        </mxCell>
        <mxCell id="Hf4WoeYFId2QkuosLSl_-3" value="" style="line;strokeWidth=1;fillColor=none;align=left;verticalAlign=middle;spacingTop=-1;spacingLeft=3;spacingRight=3;rotatable=0;labelPosition=right;points=[];portConstraint=eastwest;strokeColor=inherit;" parent="Hf4WoeYFId2QkuosLSl_-1" vertex="1">
          <mxGeometry y="80" width="230" height="8" as="geometry" />
        </mxCell>
        <mxCell id="Hf4WoeYFId2QkuosLSl_-4" value="&lt;div&gt;+ new(AppInspector)&lt;/div&gt;+ estacionar(String)&lt;div&gt;+ desEstacionar(String)&lt;/div&gt;&lt;div&gt;+ agregarPuntoDeVenta(PuntoVenta)&lt;/div&gt;&lt;div&gt;+ quitarPuntoDeVenta(PuntoVenta)&lt;/div&gt;&lt;div&gt;+ getIdInspector() : int&lt;/div&gt;&lt;div&gt;+ getPatentesSize() : int&lt;/div&gt;&lt;div&gt;+ getPuntosDeVentasSize() : int&lt;/div&gt;&lt;div&gt;+ getPuntoGeografico() : int&lt;/div&gt;&lt;div&gt;+ tieneEstacionadoA(String) : Boolean&amp;nbsp;&lt;/div&gt;" style="text;strokeColor=none;fillColor=none;align=left;verticalAlign=top;spacingLeft=4;spacingRight=4;overflow=hidden;rotatable=0;points=[[0,0.5],[1,0.5]];portConstraint=eastwest;whiteSpace=wrap;html=1;" parent="Hf4WoeYFId2QkuosLSl_-1" vertex="1">
          <mxGeometry y="88" width="230" height="152" as="geometry" />
        </mxCell>
        <mxCell id="Hf4WoeYFId2QkuosLSl_-5" value="PuntoVenta" style="swimlane;fontStyle=1;align=center;verticalAlign=top;childLayout=stackLayout;horizontal=1;startSize=26;horizontalStack=0;resizeParent=1;resizeParentMax=0;resizeLast=0;collapsible=1;marginBottom=0;whiteSpace=wrap;html=1;" parent="1" vertex="1">
          <mxGeometry x="970" y="430" width="250" height="100" as="geometry">
            <mxRectangle x="970" y="430" width="100" height="30" as="alternateBounds" />
          </mxGeometry>
        </mxCell>
        <mxCell id="Hf4WoeYFId2QkuosLSl_-6" value="" style="line;strokeWidth=1;fillColor=none;align=left;verticalAlign=middle;spacingTop=-1;spacingLeft=3;spacingRight=3;rotatable=0;labelPosition=right;points=[];portConstraint=eastwest;strokeColor=inherit;" parent="Hf4WoeYFId2QkuosLSl_-5" vertex="1">
          <mxGeometry y="26" width="250" height="8" as="geometry" />
        </mxCell>
        <mxCell id="Hf4WoeYFId2QkuosLSl_-7" value="&lt;div&gt;+ new(zonaEstacionamiento, SEM)&lt;/div&gt;+ acreditarEst(String, int) : TicketEst&lt;div&gt;+ cargarSaldo (Double, int) : TicketSaldo&lt;/div&gt;&lt;div&gt;+ finEstacionamiento()&lt;/div&gt;" style="text;strokeColor=none;fillColor=none;align=left;verticalAlign=top;spacingLeft=4;spacingRight=4;overflow=hidden;rotatable=0;points=[[0,0.5],[1,0.5]];portConstraint=eastwest;whiteSpace=wrap;html=1;" parent="Hf4WoeYFId2QkuosLSl_-5" vertex="1">
          <mxGeometry y="34" width="250" height="66" as="geometry" />
        </mxCell>
        <mxCell id="Hf4WoeYFId2QkuosLSl_-8" value="AppUsuario" style="swimlane;fontStyle=1;align=center;verticalAlign=top;childLayout=stackLayout;horizontal=1;startSize=26;horizontalStack=0;resizeParent=1;resizeParentMax=0;resizeLast=0;collapsible=1;marginBottom=0;whiteSpace=wrap;html=1;" parent="1" vertex="1">
          <mxGeometry x="460" y="695" width="320" height="500" as="geometry">
            <mxRectangle x="480" y="654" width="100" height="30" as="alternateBounds" />
          </mxGeometry>
        </mxCell>
        <mxCell id="Hf4WoeYFId2QkuosLSl_-9" value="&lt;div&gt;- patentePredeterminada: String&lt;/div&gt;&lt;div&gt;- sensorMovimiento : boolean&lt;/div&gt;&lt;div&gt;- vigente : boolean&lt;/div&gt;&lt;div&gt;- zona : ZonaEstacionamiento&lt;/div&gt;&lt;div&gt;- puntoGeograficoActual : int&lt;/div&gt;" style="text;strokeColor=none;fillColor=none;align=left;verticalAlign=top;spacingLeft=4;spacingRight=4;overflow=hidden;rotatable=0;points=[[0,0.5],[1,0.5]];portConstraint=eastwest;whiteSpace=wrap;html=1;" parent="Hf4WoeYFId2QkuosLSl_-8" vertex="1">
          <mxGeometry y="26" width="320" height="84" as="geometry" />
        </mxCell>
        <mxCell id="Hf4WoeYFId2QkuosLSl_-10" value="" style="line;strokeWidth=1;fillColor=none;align=left;verticalAlign=middle;spacingTop=-1;spacingLeft=3;spacingRight=3;rotatable=0;labelPosition=right;points=[];portConstraint=eastwest;strokeColor=inherit;" parent="Hf4WoeYFId2QkuosLSl_-8" vertex="1">
          <mxGeometry y="110" width="320" height="8" as="geometry" />
        </mxCell>
        <mxCell id="Hf4WoeYFId2QkuosLSl_-11" value="+ AppUsuario(String,SEM, Celular)&amp;nbsp;&lt;div&gt;&lt;div&gt;+ setPatentePredeterminada(String)&lt;/div&gt;&lt;div&gt;+ getPatentePredeterminada() : String&lt;/div&gt;&lt;div&gt;# getNTelefono() : int&amp;nbsp;&lt;/div&gt;&lt;div&gt;+ getVigente() : boolean&lt;/div&gt;&lt;div&gt;# cambiarVigente()&lt;/div&gt;&lt;div&gt;+ cambiarModoApp()&amp;nbsp;&lt;br&gt;&lt;/div&gt;&lt;div&gt;# setModoApp(Modo)&lt;/div&gt;&lt;div&gt;+ setSensorMovimiento(SensorMovimiento)&lt;/div&gt;&lt;div&gt;+ getZona() : ZonaEstacionamiento&lt;/div&gt;&lt;div&gt;+ obtenerZonaCercana() : ZonaEstacionamiento&lt;/div&gt;&lt;div&gt;+ InicioDeEstacionamiento(String)&lt;br&gt;+ finDeEstacionamiento()&amp;nbsp;&lt;/div&gt;&lt;div&gt;# InicioDeEstacionamientoApp(String)&lt;br&gt;# finDeEstacionamientoApp()&amp;nbsp;&lt;br&gt;&lt;div&gt;&lt;div&gt;+ consultaDeSaldo() : Double&lt;/div&gt;&lt;div&gt;# sensorPrendido() : boolean&lt;/div&gt;&lt;div&gt;+ driving() : void&lt;/div&gt;&lt;div&gt;+ walking() : void&lt;/div&gt;&lt;div&gt;+ encernderSensor() : void&lt;/div&gt;&lt;div&gt;+ apagarSensor() : void&lt;/div&gt;&lt;div&gt;+ notificarSensorApagado() : void&lt;/div&gt;&lt;div&gt;+ notificar(String) : void&amp;nbsp;&lt;/div&gt;&lt;div&gt;+ obtenerPuntoGeografico() : void&lt;/div&gt;&lt;div&gt;+ estaEnLaZona() : boolean&lt;/div&gt;&lt;div&gt;&lt;br&gt;&lt;/div&gt;&lt;div&gt;&lt;br&gt;&lt;/div&gt;&lt;/div&gt;&lt;/div&gt;&lt;/div&gt;" style="text;strokeColor=none;fillColor=none;align=left;verticalAlign=top;spacingLeft=4;spacingRight=4;overflow=hidden;rotatable=0;points=[[0,0.5],[1,0.5]];portConstraint=eastwest;whiteSpace=wrap;html=1;" parent="Hf4WoeYFId2QkuosLSl_-8" vertex="1">
          <mxGeometry y="118" width="320" height="382" as="geometry" />
        </mxCell>
        <mxCell id="Hf4WoeYFId2QkuosLSl_-12" value="SEM (observable)" style="swimlane;fontStyle=1;align=center;verticalAlign=top;childLayout=stackLayout;horizontal=1;startSize=26;horizontalStack=0;resizeParent=1;resizeParentMax=0;resizeLast=0;collapsible=1;marginBottom=0;whiteSpace=wrap;html=1;" parent="1" vertex="1">
          <mxGeometry x="500" y="-210" width="390" height="550" as="geometry" />
        </mxCell>
        <mxCell id="Hf4WoeYFId2QkuosLSl_-13" value="&lt;div&gt;&lt;span style=&quot;background-color: initial;&quot;&gt;- hora: int&lt;/span&gt;&lt;br&gt;&lt;/div&gt;&lt;div&gt;- fecha : String&lt;/div&gt;&lt;div&gt;- precioEstacionamiento : Double&lt;/div&gt;&lt;div&gt;- contadorIdTickets : Int&lt;/div&gt;&lt;div&gt;&amp;nbsp;&lt;/div&gt;&lt;div&gt;&lt;br&gt;&lt;/div&gt;&lt;div&gt;&lt;span style=&quot;background-color: initial;&quot;&gt;&lt;br&gt;&lt;/span&gt;&lt;br&gt;&lt;/div&gt;" style="text;strokeColor=none;fillColor=none;align=left;verticalAlign=top;spacingLeft=4;spacingRight=4;overflow=hidden;rotatable=0;points=[[0,0.5],[1,0.5]];portConstraint=eastwest;whiteSpace=wrap;html=1;" parent="Hf4WoeYFId2QkuosLSl_-12" vertex="1">
          <mxGeometry y="26" width="390" height="64" as="geometry" />
        </mxCell>
        <mxCell id="Hf4WoeYFId2QkuosLSl_-14" value="" style="line;strokeWidth=1;fillColor=none;align=left;verticalAlign=middle;spacingTop=-1;spacingLeft=3;spacingRight=3;rotatable=0;labelPosition=right;points=[];portConstraint=eastwest;strokeColor=inherit;" parent="Hf4WoeYFId2QkuosLSl_-12" vertex="1">
          <mxGeometry y="90" width="390" height="8" as="geometry" />
        </mxCell>
        <mxCell id="Hf4WoeYFId2QkuosLSl_-15" value="&lt;div&gt;+ SEM(String)&lt;/div&gt;&lt;div&gt;+ getPrecioEstacionamiento() : double&lt;/div&gt;&lt;div&gt;+ getContadorIdTickets() : int&lt;/div&gt;&lt;div&gt;+ getHora() : int&lt;/div&gt;&lt;div&gt;+ setHora(int)&lt;br&gt;&lt;/div&gt;&lt;div&gt;+ getFecha() : String&lt;/div&gt;&lt;div&gt;+ setFecha(String)&lt;/div&gt;&lt;div&gt;+ getCantTickets() : int&lt;/div&gt;&lt;div&gt;+ getCantRegistrosDeEst() : int&lt;/div&gt;&lt;div&gt;+ getCantCreditos() : int&lt;/div&gt;&lt;div&gt;+ getCantZonasEst(0 : int&lt;/div&gt;&lt;div&gt;+ getCantInfracciones() : int&lt;/div&gt;&lt;div&gt;# addTicketHistorico(Ticket)&lt;/div&gt;&lt;div&gt;# addCredito(Credito)&lt;/div&gt;&lt;div&gt;# addInfraccion(Infraccion)&lt;/div&gt;&lt;div&gt;# addRegistroDeEst(RegistroEst)&lt;/div&gt;&lt;div&gt;# addZonaEstacionamiento(ZonaEstacionamiento)&lt;/div&gt;&lt;div&gt;+ estaEnInfraccion(String, int) : boolean&lt;/div&gt;&lt;div&gt;+ yaPosseUnaInfraccion(String, int) : boolean&lt;/div&gt;&lt;div&gt;+ altaDeInfraccion(String, int)&lt;/div&gt;&lt;div&gt;+ addEstacionamientoPV(String, int)&lt;/div&gt;&lt;div&gt;+ addTicket(Ticket)&lt;/div&gt;&lt;div&gt;+ registrarEstacionamientoApp(String, AppUsuario)&lt;/div&gt;&lt;div&gt;- nuevoCredito(int) : Credito&lt;/div&gt;&lt;div&gt;+ cargarCredito(double, int)&lt;/div&gt;&lt;div&gt;+ removerEstacionamientoDe_(AppUsuario)&lt;/div&gt;&lt;div&gt;+ finalizarHorarioVigente()&lt;/div&gt;&lt;div&gt;+ consultarSaldoDe_(int): double&lt;/div&gt;&lt;div&gt;+ obtenerZonaCercana() : ZonaEstacionamiento&lt;/div&gt;&lt;div&gt;+ finEstacionamiento()&lt;/div&gt;&lt;div&gt;+ allNotify()&lt;/div&gt;" style="text;strokeColor=none;fillColor=none;align=left;verticalAlign=top;spacingLeft=4;spacingRight=4;overflow=hidden;rotatable=0;points=[[0,0.5],[1,0.5]];portConstraint=eastwest;whiteSpace=wrap;html=1;" parent="Hf4WoeYFId2QkuosLSl_-12" vertex="1">
          <mxGeometry y="98" width="390" height="452" as="geometry" />
        </mxCell>
        <mxCell id="Hf4WoeYFId2QkuosLSl_-16" value="Infracciones" style="swimlane;fontStyle=1;align=center;verticalAlign=top;childLayout=stackLayout;horizontal=1;startSize=26;horizontalStack=0;resizeParent=1;resizeParentMax=0;resizeLast=0;collapsible=1;marginBottom=0;whiteSpace=wrap;html=1;" parent="1" vertex="1">
          <mxGeometry x="1170" y="-350" width="360" height="220" as="geometry">
            <mxRectangle x="1061" y="-100" width="110" height="30" as="alternateBounds" />
          </mxGeometry>
        </mxCell>
        <mxCell id="Hf4WoeYFId2QkuosLSl_-17" value="&lt;div&gt;- patente : String&lt;/div&gt;&lt;div&gt;&lt;span style=&quot;background-color: initial;&quot;&gt;- fecha : String&amp;nbsp;&lt;/span&gt;&lt;/div&gt;&lt;div&gt;- hora : int&lt;/div&gt;&lt;div&gt;- IdInspector : int&lt;/div&gt;&lt;div&gt;- estacionamiento : ZonaEstacionamiento&lt;/div&gt;" style="text;strokeColor=none;fillColor=none;align=left;verticalAlign=top;spacingLeft=4;spacingRight=4;overflow=hidden;rotatable=0;points=[[0,0.5],[1,0.5]];portConstraint=eastwest;whiteSpace=wrap;html=1;" parent="Hf4WoeYFId2QkuosLSl_-16" vertex="1">
          <mxGeometry y="26" width="360" height="84" as="geometry" />
        </mxCell>
        <mxCell id="Hf4WoeYFId2QkuosLSl_-18" value="" style="line;strokeWidth=1;fillColor=none;align=left;verticalAlign=middle;spacingTop=-1;spacingLeft=3;spacingRight=3;rotatable=0;labelPosition=right;points=[];portConstraint=eastwest;strokeColor=inherit;" parent="Hf4WoeYFId2QkuosLSl_-16" vertex="1">
          <mxGeometry y="110" width="360" height="8" as="geometry" />
        </mxCell>
        <mxCell id="Hf4WoeYFId2QkuosLSl_-19" value="+ Infraccion( String, String, int, int, ZonaEstacionamiento)&lt;div&gt;+ getPatente() : String&lt;/div&gt;&lt;div&gt;+ getFecha() : String&lt;/div&gt;&lt;div&gt;+ getHora() : int&lt;/div&gt;&lt;div&gt;+ getIdInspector() : int&lt;/div&gt;&lt;div&gt;+ getZonaEstacionamiento() : ZonaEstacionamiento&lt;/div&gt;" style="text;strokeColor=none;fillColor=none;align=left;verticalAlign=top;spacingLeft=4;spacingRight=4;overflow=hidden;rotatable=0;points=[[0,0.5],[1,0.5]];portConstraint=eastwest;whiteSpace=wrap;html=1;" parent="Hf4WoeYFId2QkuosLSl_-16" vertex="1">
          <mxGeometry y="118" width="360" height="102" as="geometry" />
        </mxCell>
        <mxCell id="Hf4WoeYFId2QkuosLSl_-20" value="Celular" style="swimlane;fontStyle=1;align=center;verticalAlign=top;childLayout=stackLayout;horizontal=1;startSize=30;horizontalStack=0;resizeParent=1;resizeParentMax=0;resizeLast=0;collapsible=1;marginBottom=0;whiteSpace=wrap;html=1;" parent="1" vertex="1">
          <mxGeometry y="712" width="330" height="360" as="geometry">
            <mxRectangle y="712" width="80" height="30" as="alternateBounds" />
          </mxGeometry>
        </mxCell>
        <mxCell id="Hf4WoeYFId2QkuosLSl_-21" value="- numero: int&lt;div&gt;- zona:&amp;nbsp; ZonaEstacionamiento&lt;/div&gt;&lt;div&gt;- patentes : List&amp;lt;String&amp;gt;&lt;/div&gt;" style="text;strokeColor=none;fillColor=none;align=left;verticalAlign=top;spacingLeft=4;spacingRight=4;overflow=hidden;rotatable=0;points=[[0,0.5],[1,0.5]];portConstraint=eastwest;whiteSpace=wrap;html=1;" parent="Hf4WoeYFId2QkuosLSl_-20" vertex="1">
          <mxGeometry y="30" width="330" height="50" as="geometry" />
        </mxCell>
        <mxCell id="Hf4WoeYFId2QkuosLSl_-22" value="" style="line;strokeWidth=1;fillColor=none;align=left;verticalAlign=middle;spacingTop=-1;spacingLeft=3;spacingRight=3;rotatable=0;labelPosition=right;points=[];portConstraint=eastwest;strokeColor=inherit;" parent="Hf4WoeYFId2QkuosLSl_-20" vertex="1">
          <mxGeometry y="80" width="330" height="8" as="geometry" />
        </mxCell>
        <mxCell id="Hf4WoeYFId2QkuosLSl_-23" value="+ new(int, ZonaEstacionamiento)&lt;div&gt;+ ObtenerZonaCercana()&lt;/div&gt;&lt;div&gt;+ getZona() : ZonaEstacionamiento&lt;/div&gt;&lt;div&gt;+ descargarApp(AppUsuario)&lt;/div&gt;&lt;div&gt;+ getApp() : AppUsuario&lt;/div&gt;&lt;div&gt;+ getNumero() : int&lt;/div&gt;&lt;div&gt;# addPatente(String)&amp;nbsp;&lt;/div&gt;&lt;div&gt;# removePatente(String)&lt;/div&gt;&lt;div&gt;# getPatentesSize(): int&lt;/div&gt;&lt;div&gt;# appInstalada() : boolean&lt;/div&gt;&lt;div&gt;+ setPatentePrincipal(String)&lt;/div&gt;&lt;div&gt;+ iniciarEstacionamiento(String)&amp;nbsp;&lt;/div&gt;&lt;div&gt;+ finalizarEstacionamiento()&lt;/div&gt;&lt;div&gt;+ consultarSaldo()&lt;/div&gt;&lt;div&gt;+ cambiarModo()&lt;/div&gt;&lt;div&gt;+ notificar(String): String&lt;/div&gt;&lt;div&gt;+ encenderSensor()&lt;/div&gt;&lt;div&gt;+ apagarSensor()&lt;/div&gt;&lt;div&gt;&lt;br&gt;&lt;/div&gt;" style="text;strokeColor=none;fillColor=none;align=left;verticalAlign=top;spacingLeft=4;spacingRight=4;overflow=hidden;rotatable=0;points=[[0,0.5],[1,0.5]];portConstraint=eastwest;whiteSpace=wrap;html=1;" parent="Hf4WoeYFId2QkuosLSl_-20" vertex="1">
          <mxGeometry y="88" width="330" height="272" as="geometry" />
        </mxCell>
        <mxCell id="Hf4WoeYFId2QkuosLSl_-24" value="app" style="endArrow=block;endFill=1;html=1;edgeStyle=orthogonalEdgeStyle;align=left;verticalAlign=top;rounded=0;" parent="1" source="Hf4WoeYFId2QkuosLSl_-20" target="Hf4WoeYFId2QkuosLSl_-8" edge="1">
          <mxGeometry x="-0.375" y="12" relative="1" as="geometry">
            <mxPoint x="240" y="557" as="sourcePoint" />
            <mxPoint x="280" y="870" as="targetPoint" />
            <mxPoint as="offset" />
            <Array as="points">
              <mxPoint x="440" y="810" />
              <mxPoint x="440" y="810" />
            </Array>
          </mxGeometry>
        </mxCell>
        <mxCell id="Hf4WoeYFId2QkuosLSl_-25" value="ModoAutomatico" style="swimlane;fontStyle=1;align=center;verticalAlign=top;childLayout=stackLayout;horizontal=1;startSize=26;horizontalStack=0;resizeParent=1;resizeParentMax=0;resizeLast=0;collapsible=1;marginBottom=0;whiteSpace=wrap;html=1;" parent="1" vertex="1">
          <mxGeometry x="1350" y="832" width="260" height="220" as="geometry">
            <mxRectangle x="1270" y="940" width="130" height="30" as="alternateBounds" />
          </mxGeometry>
        </mxCell>
        <mxCell id="Hf4WoeYFId2QkuosLSl_-26" value="- app : AppUsuario&lt;div&gt;- estadoCaminando : boolean&lt;/div&gt;" style="text;strokeColor=none;fillColor=none;align=left;verticalAlign=top;spacingLeft=4;spacingRight=4;overflow=hidden;rotatable=0;points=[[0,0.5],[1,0.5]];portConstraint=eastwest;whiteSpace=wrap;html=1;" parent="Hf4WoeYFId2QkuosLSl_-25" vertex="1">
          <mxGeometry y="26" width="260" height="34" as="geometry" />
        </mxCell>
        <mxCell id="Hf4WoeYFId2QkuosLSl_-27" value="" style="line;strokeWidth=1;fillColor=none;align=left;verticalAlign=middle;spacingTop=-1;spacingLeft=3;spacingRight=3;rotatable=0;labelPosition=right;points=[];portConstraint=eastwest;strokeColor=inherit;" parent="Hf4WoeYFId2QkuosLSl_-25" vertex="1">
          <mxGeometry y="60" width="260" height="8" as="geometry" />
        </mxCell>
        <mxCell id="Hf4WoeYFId2QkuosLSl_-28" value="&lt;div&gt;+ new(AppUsuario)&lt;/div&gt;+ cambiarModo(AppUsuario)&lt;div&gt;+ iniciarEstacionamiento()&lt;/div&gt;&lt;div&gt;+ finalizarEstacionamiento()&lt;/div&gt;&lt;div&gt;+ InicioDeEstacionamiento(String)&lt;br&gt;+ finDeEstacionamiento()&amp;nbsp;&lt;br&gt;&lt;/div&gt;&lt;div&gt;+ estaManejando()&lt;/div&gt;&lt;div&gt;+ estaCaminando()&lt;/div&gt;&lt;div&gt;# cambiarEstado()&lt;/div&gt;&lt;div&gt;+ notificarSensorApagado(AppUsuario)&lt;/div&gt;" style="text;strokeColor=none;fillColor=none;align=left;verticalAlign=top;spacingLeft=4;spacingRight=4;overflow=hidden;rotatable=0;points=[[0,0.5],[1,0.5]];portConstraint=eastwest;whiteSpace=wrap;html=1;" parent="Hf4WoeYFId2QkuosLSl_-25" vertex="1">
          <mxGeometry y="68" width="260" height="152" as="geometry" />
        </mxCell>
        <mxCell id="Hf4WoeYFId2QkuosLSl_-29" value="ModoManual" style="swimlane;fontStyle=1;align=center;verticalAlign=top;childLayout=stackLayout;horizontal=1;startSize=26;horizontalStack=0;resizeParent=1;resizeParentMax=0;resizeLast=0;collapsible=1;marginBottom=0;whiteSpace=wrap;html=1;" parent="1" vertex="1">
          <mxGeometry x="1050" y="832" width="220" height="140" as="geometry">
            <mxRectangle x="1010" y="940" width="110" height="30" as="alternateBounds" />
          </mxGeometry>
        </mxCell>
        <mxCell id="Hf4WoeYFId2QkuosLSl_-30" value="" style="line;strokeWidth=1;fillColor=none;align=left;verticalAlign=middle;spacingTop=-1;spacingLeft=3;spacingRight=3;rotatable=0;labelPosition=right;points=[];portConstraint=eastwest;strokeColor=inherit;" parent="Hf4WoeYFId2QkuosLSl_-29" vertex="1">
          <mxGeometry y="26" width="220" height="8" as="geometry" />
        </mxCell>
        <mxCell id="Hf4WoeYFId2QkuosLSl_-31" value="&lt;div&gt;+ new(AppUsuario)&lt;/div&gt;+ cambiarModo(AppUsuario)&amp;nbsp;&lt;div&gt;+ estaManejando()&lt;/div&gt;&lt;div&gt;+ estaCaminando()&lt;/div&gt;&lt;div&gt;+ notificarSensorApagado(AppUsuario)&lt;/div&gt;&lt;div&gt;+ InicioDeEstacionamiento(String)&lt;br&gt;+ finDeEstacionamiento()&amp;nbsp;&lt;br&gt;&lt;/div&gt;&lt;div&gt;&lt;br&gt;&lt;/div&gt;" style="text;strokeColor=none;fillColor=none;align=left;verticalAlign=top;spacingLeft=4;spacingRight=4;overflow=hidden;rotatable=0;points=[[0,0.5],[1,0.5]];portConstraint=eastwest;whiteSpace=wrap;html=1;" parent="Hf4WoeYFId2QkuosLSl_-29" vertex="1">
          <mxGeometry y="34" width="220" height="106" as="geometry" />
        </mxCell>
        <mxCell id="Hf4WoeYFId2QkuosLSl_-32" value="Use" style="endArrow=open;endSize=12;dashed=1;html=1;rounded=0;" parent="1" source="Hf4WoeYFId2QkuosLSl_-25" target="Hf4WoeYFId2QkuosLSl_-75" edge="1">
          <mxGeometry width="160" relative="1" as="geometry">
            <mxPoint x="890" y="900" as="sourcePoint" />
            <mxPoint x="1030" y="724.0999999999999" as="targetPoint" />
          </mxGeometry>
        </mxCell>
        <mxCell id="Hf4WoeYFId2QkuosLSl_-33" value="Use" style="endArrow=open;endSize=12;dashed=1;html=1;rounded=0;" parent="1" source="Hf4WoeYFId2QkuosLSl_-29" target="Hf4WoeYFId2QkuosLSl_-75" edge="1">
          <mxGeometry width="160" relative="1" as="geometry">
            <mxPoint x="1080" y="845" as="sourcePoint" />
            <mxPoint x="1006.6666666666667" y="770" as="targetPoint" />
          </mxGeometry>
        </mxCell>
        <mxCell id="Hf4WoeYFId2QkuosLSl_-34" value="modo" style="endArrow=block;endFill=1;html=1;edgeStyle=orthogonalEdgeStyle;align=left;verticalAlign=top;rounded=0;" parent="1" source="Hf4WoeYFId2QkuosLSl_-8" target="Hf4WoeYFId2QkuosLSl_-75" edge="1">
          <mxGeometry x="0.1216" y="10" relative="1" as="geometry">
            <mxPoint x="540" y="968.25" as="sourcePoint" />
            <mxPoint x="975" y="720" as="targetPoint" />
            <mxPoint as="offset" />
          </mxGeometry>
        </mxCell>
        <mxCell id="Hf4WoeYFId2QkuosLSl_-35" value="AppInspector" style="swimlane;fontStyle=1;align=center;verticalAlign=top;childLayout=stackLayout;horizontal=1;startSize=26;horizontalStack=0;resizeParent=1;resizeParentMax=0;resizeLast=0;collapsible=1;marginBottom=0;whiteSpace=wrap;html=1;" parent="1" vertex="1">
          <mxGeometry x="10" y="100" width="290" height="140" as="geometry">
            <mxRectangle x="10" y="100" width="110" height="30" as="alternateBounds" />
          </mxGeometry>
        </mxCell>
        <mxCell id="Hf4WoeYFId2QkuosLSl_-36" value="- id : int" style="text;strokeColor=none;fillColor=none;align=left;verticalAlign=top;spacingLeft=4;spacingRight=4;overflow=hidden;rotatable=0;points=[[0,0.5],[1,0.5]];portConstraint=eastwest;whiteSpace=wrap;html=1;" parent="Hf4WoeYFId2QkuosLSl_-35" vertex="1">
          <mxGeometry y="26" width="290" height="26" as="geometry" />
        </mxCell>
        <mxCell id="Hf4WoeYFId2QkuosLSl_-37" value="" style="line;strokeWidth=1;fillColor=none;align=left;verticalAlign=middle;spacingTop=-1;spacingLeft=3;spacingRight=3;rotatable=0;labelPosition=right;points=[];portConstraint=eastwest;strokeColor=inherit;" parent="Hf4WoeYFId2QkuosLSl_-35" vertex="1">
          <mxGeometry y="52" width="290" height="8" as="geometry" />
        </mxCell>
        <mxCell id="Hf4WoeYFId2QkuosLSl_-38" value="&lt;div&gt;+ new(Int, SEM)&lt;/div&gt;&lt;div&gt;+ getId() : Int&lt;/div&gt;&lt;div&gt;+ getSistemaSEM(): SEM&amp;nbsp;&lt;/div&gt;+ consultarEstacionamientoDe(String)&lt;div&gt;+ altaDeInfraccion(String)&lt;/div&gt;" style="text;strokeColor=none;fillColor=none;align=left;verticalAlign=top;spacingLeft=4;spacingRight=4;overflow=hidden;rotatable=0;points=[[0,0.5],[1,0.5]];portConstraint=eastwest;whiteSpace=wrap;html=1;" parent="Hf4WoeYFId2QkuosLSl_-35" vertex="1">
          <mxGeometry y="60" width="290" height="80" as="geometry" />
        </mxCell>
        <mxCell id="Hf4WoeYFId2QkuosLSl_-39" value="puntosDeVenta" style="endArrow=block;endFill=1;html=1;edgeStyle=orthogonalEdgeStyle;align=left;verticalAlign=top;rounded=0;" parent="1" source="Hf4WoeYFId2QkuosLSl_-1" target="Hf4WoeYFId2QkuosLSl_-5" edge="1">
          <mxGeometry x="-0.7006" y="17" relative="1" as="geometry">
            <mxPoint x="870" y="450" as="sourcePoint" />
            <mxPoint x="1030" y="450" as="targetPoint" />
            <mxPoint as="offset" />
          </mxGeometry>
        </mxCell>
        <mxCell id="Hf4WoeYFId2QkuosLSl_-40" value="*" style="edgeLabel;resizable=0;html=1;align=left;verticalAlign=bottom;" parent="Hf4WoeYFId2QkuosLSl_-39" connectable="0" vertex="1">
          <mxGeometry x="-1" relative="1" as="geometry">
            <mxPoint x="127" y="-69" as="offset" />
          </mxGeometry>
        </mxCell>
        <mxCell id="Hf4WoeYFId2QkuosLSl_-41" value="sistSEM" style="endArrow=block;endFill=1;html=1;edgeStyle=orthogonalEdgeStyle;align=left;verticalAlign=top;rounded=0;" parent="1" source="Hf4WoeYFId2QkuosLSl_-35" target="Hf4WoeYFId2QkuosLSl_-12" edge="1">
          <mxGeometry x="-0.8182" relative="1" as="geometry">
            <mxPoint x="300" y="400" as="sourcePoint" />
            <mxPoint x="340" y="330" as="targetPoint" />
            <Array as="points">
              <mxPoint x="420" y="170" />
              <mxPoint x="420" y="170" />
            </Array>
            <mxPoint as="offset" />
          </mxGeometry>
        </mxCell>
        <mxCell id="Hf4WoeYFId2QkuosLSl_-42" value="1" style="edgeLabel;resizable=0;html=1;align=left;verticalAlign=bottom;" parent="Hf4WoeYFId2QkuosLSl_-41" connectable="0" vertex="1">
          <mxGeometry x="-1" relative="1" as="geometry">
            <mxPoint x="180" y="-6" as="offset" />
          </mxGeometry>
        </mxCell>
        <mxCell id="Hf4WoeYFId2QkuosLSl_-43" value="registroDeMovimientos" style="endArrow=block;endFill=1;html=1;edgeStyle=orthogonalEdgeStyle;align=left;verticalAlign=top;rounded=0;" parent="1" source="Hf4WoeYFId2QkuosLSl_-12" target="Hf4WoeYFId2QkuosLSl_-59" edge="1">
          <mxGeometry x="-0.358" relative="1" as="geometry">
            <mxPoint x="820" y="420" as="sourcePoint" />
            <mxPoint x="1075" y="287" as="targetPoint" />
            <Array as="points">
              <mxPoint x="970" y="130" />
              <mxPoint x="970" y="60" />
            </Array>
            <mxPoint as="offset" />
          </mxGeometry>
        </mxCell>
        <mxCell id="Hf4WoeYFId2QkuosLSl_-44" value="*" style="edgeLabel;resizable=0;html=1;align=left;verticalAlign=bottom;" parent="Hf4WoeYFId2QkuosLSl_-43" connectable="0" vertex="1">
          <mxGeometry x="-1" relative="1" as="geometry">
            <mxPoint x="870" y="-140" as="offset" />
          </mxGeometry>
        </mxCell>
        <mxCell id="Hf4WoeYFId2QkuosLSl_-45" value="sistSEM" style="endArrow=block;endFill=1;html=1;edgeStyle=orthogonalEdgeStyle;align=left;verticalAlign=top;rounded=0;" parent="1" source="Hf4WoeYFId2QkuosLSl_-8" target="Hf4WoeYFId2QkuosLSl_-12" edge="1">
          <mxGeometry x="-0.2958" y="20" relative="1" as="geometry">
            <mxPoint x="390" y="699" as="sourcePoint" />
            <mxPoint x="490" y="349" as="targetPoint" />
            <Array as="points">
              <mxPoint x="420" y="709" />
              <mxPoint x="420" y="270" />
            </Array>
            <mxPoint as="offset" />
          </mxGeometry>
        </mxCell>
        <mxCell id="Hf4WoeYFId2QkuosLSl_-46" value="zonasEstacionamiento" style="endArrow=block;endFill=1;html=1;edgeStyle=orthogonalEdgeStyle;align=left;verticalAlign=top;rounded=0;" parent="1" source="Hf4WoeYFId2QkuosLSl_-12" target="Hf4WoeYFId2QkuosLSl_-1" edge="1">
          <mxGeometry x="-0.7702" y="-45" relative="1" as="geometry">
            <mxPoint x="1100" y="370" as="sourcePoint" />
            <mxPoint x="1260" y="370" as="targetPoint" />
            <mxPoint as="offset" />
          </mxGeometry>
        </mxCell>
        <mxCell id="Hf4WoeYFId2QkuosLSl_-47" value="*" style="edgeLabel;resizable=0;html=1;align=left;verticalAlign=bottom;" parent="Hf4WoeYFId2QkuosLSl_-46" connectable="0" vertex="1">
          <mxGeometry x="-1" relative="1" as="geometry">
            <mxPoint x="-15" y="110" as="offset" />
          </mxGeometry>
        </mxCell>
        <mxCell id="Hf4WoeYFId2QkuosLSl_-48" value="sistSEM" style="endArrow=block;endFill=1;html=1;edgeStyle=orthogonalEdgeStyle;align=left;verticalAlign=top;rounded=0;" parent="1" source="Hf4WoeYFId2QkuosLSl_-5" target="Hf4WoeYFId2QkuosLSl_-12" edge="1">
          <mxGeometry x="-0.5833" y="20" relative="1" as="geometry">
            <mxPoint x="1050" y="370" as="sourcePoint" />
            <mxPoint x="1210" y="370" as="targetPoint" />
            <Array as="points">
              <mxPoint x="1040" y="290" />
            </Array>
            <mxPoint as="offset" />
          </mxGeometry>
        </mxCell>
        <mxCell id="Hf4WoeYFId2QkuosLSl_-49" value="zonaEstacionamiento" style="endArrow=block;endFill=1;html=1;edgeStyle=orthogonalEdgeStyle;align=left;verticalAlign=top;rounded=0;" parent="1" source="Hf4WoeYFId2QkuosLSl_-5" target="Hf4WoeYFId2QkuosLSl_-1" edge="1">
          <mxGeometry x="-0.2654" y="-20" relative="1" as="geometry">
            <mxPoint x="870" y="640" as="sourcePoint" />
            <mxPoint x="1030" y="640" as="targetPoint" />
            <Array as="points">
              <mxPoint x="1095" y="610" />
            </Array>
            <mxPoint as="offset" />
          </mxGeometry>
        </mxCell>
        <mxCell id="Hf4WoeYFId2QkuosLSl_-50" value="TicketSaldo" style="swimlane;fontStyle=1;align=center;verticalAlign=top;childLayout=stackLayout;horizontal=1;startSize=26;horizontalStack=0;resizeParent=1;resizeParentMax=0;resizeLast=0;collapsible=1;marginBottom=0;whiteSpace=wrap;html=1;" parent="1" vertex="1">
          <mxGeometry x="1844" y="40" width="270" height="190" as="geometry">
            <mxRectangle x="1840" y="190" width="100" height="30" as="alternateBounds" />
          </mxGeometry>
        </mxCell>
        <mxCell id="Hf4WoeYFId2QkuosLSl_-51" value="- idTicket : int&lt;br&gt;- puntoDeVenta : PuntoVenta&lt;br&gt;&lt;div&gt;- fecha : String&lt;br&gt;- hora : int&lt;/div&gt;&lt;div&gt;- nTelefono : int&amp;nbsp;&lt;/div&gt;&lt;div&gt;- monto : double&lt;/div&gt;" style="text;strokeColor=none;fillColor=none;align=left;verticalAlign=top;spacingLeft=4;spacingRight=4;overflow=hidden;rotatable=0;points=[[0,0.5],[1,0.5]];portConstraint=eastwest;whiteSpace=wrap;html=1;" parent="Hf4WoeYFId2QkuosLSl_-50" vertex="1">
          <mxGeometry y="26" width="270" height="94" as="geometry" />
        </mxCell>
        <mxCell id="Hf4WoeYFId2QkuosLSl_-52" value="" style="line;strokeWidth=1;fillColor=none;align=left;verticalAlign=middle;spacingTop=-1;spacingLeft=3;spacingRight=3;rotatable=0;labelPosition=right;points=[];portConstraint=eastwest;strokeColor=inherit;" parent="Hf4WoeYFId2QkuosLSl_-50" vertex="1">
          <mxGeometry y="120" width="270" height="8" as="geometry" />
        </mxCell>
        <mxCell id="Hf4WoeYFId2QkuosLSl_-53" value="+ new(int, PuntoDeVenta, String, Int, Int, double)&lt;div&gt;+ getIdTicket() : int&lt;/div&gt;&lt;div&gt;+ getHora() : Int&lt;/div&gt;" style="text;strokeColor=none;fillColor=none;align=left;verticalAlign=top;spacingLeft=4;spacingRight=4;overflow=hidden;rotatable=0;points=[[0,0.5],[1,0.5]];portConstraint=eastwest;whiteSpace=wrap;html=1;" parent="Hf4WoeYFId2QkuosLSl_-50" vertex="1">
          <mxGeometry y="128" width="270" height="62" as="geometry" />
        </mxCell>
        <mxCell id="Hf4WoeYFId2QkuosLSl_-54" value="Credito" style="swimlane;fontStyle=1;align=center;verticalAlign=top;childLayout=stackLayout;horizontal=1;startSize=26;horizontalStack=0;resizeParent=1;resizeParentMax=0;resizeLast=0;collapsible=1;marginBottom=0;whiteSpace=wrap;html=1;" parent="1" vertex="1">
          <mxGeometry x="840" y="-480" width="180" height="170" as="geometry">
            <mxRectangle x="827" y="-330" width="80" height="30" as="alternateBounds" />
          </mxGeometry>
        </mxCell>
        <mxCell id="Hf4WoeYFId2QkuosLSl_-55" value="- nTelefono : int&lt;div&gt;- saldo : Double&lt;/div&gt;" style="text;strokeColor=none;fillColor=none;align=left;verticalAlign=top;spacingLeft=4;spacingRight=4;overflow=hidden;rotatable=0;points=[[0,0.5],[1,0.5]];portConstraint=eastwest;whiteSpace=wrap;html=1;" parent="Hf4WoeYFId2QkuosLSl_-54" vertex="1">
          <mxGeometry y="26" width="180" height="44" as="geometry" />
        </mxCell>
        <mxCell id="Hf4WoeYFId2QkuosLSl_-56" value="" style="line;strokeWidth=1;fillColor=none;align=left;verticalAlign=middle;spacingTop=-1;spacingLeft=3;spacingRight=3;rotatable=0;labelPosition=right;points=[];portConstraint=eastwest;strokeColor=inherit;" parent="Hf4WoeYFId2QkuosLSl_-54" vertex="1">
          <mxGeometry y="70" width="180" height="8" as="geometry" />
        </mxCell>
        <mxCell id="Hf4WoeYFId2QkuosLSl_-57" value="&lt;div&gt;+ new(Int)&lt;/div&gt;&lt;div&gt;+ getNTelefono(): Int&lt;br&gt;&lt;/div&gt;+ getCredito() : Double&lt;div&gt;&lt;div&gt;+ aumentarCredito(Double)&lt;/div&gt;&lt;div&gt;+ decrementarCredito(Double)&amp;nbsp;&lt;/div&gt;&lt;/div&gt;" style="text;strokeColor=none;fillColor=none;align=left;verticalAlign=top;spacingLeft=4;spacingRight=4;overflow=hidden;rotatable=0;points=[[0,0.5],[1,0.5]];portConstraint=eastwest;whiteSpace=wrap;html=1;" parent="Hf4WoeYFId2QkuosLSl_-54" vertex="1">
          <mxGeometry y="78" width="180" height="92" as="geometry" />
        </mxCell>
        <mxCell id="Hf4WoeYFId2QkuosLSl_-58" value="celular" style="endArrow=block;endFill=1;html=1;edgeStyle=orthogonalEdgeStyle;align=left;verticalAlign=top;rounded=0;" parent="1" source="Hf4WoeYFId2QkuosLSl_-8" target="Hf4WoeYFId2QkuosLSl_-20" edge="1">
          <mxGeometry x="0.3846" y="-15" relative="1" as="geometry">
            <mxPoint x="340" y="930" as="sourcePoint" />
            <mxPoint x="500" y="930" as="targetPoint" />
            <Array as="points">
              <mxPoint x="640" y="1010" />
              <mxPoint x="225" y="1010" />
            </Array>
            <mxPoint as="offset" />
          </mxGeometry>
        </mxCell>
        <mxCell id="Hf4WoeYFId2QkuosLSl_-59" value="&lt;p style=&quot;margin:0px;margin-top:4px;text-align:center;&quot;&gt;&lt;i&gt;&amp;lt;&amp;lt;interface&amp;gt;&amp;gt;&lt;/i&gt;&lt;br&gt;&lt;b&gt;Ticket&lt;/b&gt;&lt;/p&gt;&lt;hr size=&quot;1&quot; style=&quot;border-style:solid;&quot;&gt;&lt;p style=&quot;margin:0px;margin-left:4px;&quot;&gt;+ getIdTicket() : int&lt;br&gt;&lt;/p&gt;&lt;p style=&quot;margin:0px;margin-left:4px;&quot;&gt;+ getFecha() : String&lt;/p&gt;" style="verticalAlign=top;align=left;overflow=fill;html=1;whiteSpace=wrap;" parent="1" vertex="1">
          <mxGeometry x="1654" y="-130" width="190" height="90" as="geometry" />
        </mxCell>
        <mxCell id="Hf4WoeYFId2QkuosLSl_-60" value="Use" style="endArrow=open;endSize=12;dashed=1;html=1;rounded=0;" parent="1" source="Hf4WoeYFId2QkuosLSl_-66" target="Hf4WoeYFId2QkuosLSl_-59" edge="1">
          <mxGeometry width="160" relative="1" as="geometry">
            <mxPoint x="1602.7777777777778" y="169.99999999999977" as="sourcePoint" />
            <mxPoint x="1850" y="230" as="targetPoint" />
          </mxGeometry>
        </mxCell>
        <mxCell id="Hf4WoeYFId2QkuosLSl_-61" value="Use" style="endArrow=open;endSize=12;dashed=1;html=1;rounded=0;" parent="1" source="Hf4WoeYFId2QkuosLSl_-50" target="Hf4WoeYFId2QkuosLSl_-59" edge="1">
          <mxGeometry width="160" relative="1" as="geometry">
            <mxPoint x="1660" y="220" as="sourcePoint" />
            <mxPoint x="1820" y="220" as="targetPoint" />
          </mxGeometry>
        </mxCell>
        <mxCell id="Hf4WoeYFId2QkuosLSl_-62" value="registroDeEstacionamientos" style="endArrow=block;endFill=1;html=1;edgeStyle=orthogonalEdgeStyle;align=left;verticalAlign=top;rounded=0;" parent="1" source="Hf4WoeYFId2QkuosLSl_-12" target="Hf4WoeYFId2QkuosLSl_-71" edge="1">
          <mxGeometry x="-0.5217" y="10" relative="1" as="geometry">
            <mxPoint x="1040" y="280" as="sourcePoint" />
            <mxPoint x="1430" y="239.9565217391305" as="targetPoint" />
            <Array as="points">
              <mxPoint x="1310" y="240" />
            </Array>
            <mxPoint as="offset" />
          </mxGeometry>
        </mxCell>
        <mxCell id="Hf4WoeYFId2QkuosLSl_-63" value="*" style="edgeLabel;resizable=0;html=1;align=left;verticalAlign=bottom;" parent="Hf4WoeYFId2QkuosLSl_-62" connectable="0" vertex="1">
          <mxGeometry x="-1" relative="1" as="geometry">
            <mxPoint x="400" y="30" as="offset" />
          </mxGeometry>
        </mxCell>
        <mxCell id="Hf4WoeYFId2QkuosLSl_-64" value="listaDeCreditos" style="endArrow=block;endFill=1;html=1;edgeStyle=orthogonalEdgeStyle;align=left;verticalAlign=top;rounded=0;" parent="1" source="Hf4WoeYFId2QkuosLSl_-12" target="Hf4WoeYFId2QkuosLSl_-54" edge="1">
          <mxGeometry x="0.2" y="40" relative="1" as="geometry">
            <mxPoint x="610" y="-70" as="sourcePoint" />
            <mxPoint x="770" y="-70" as="targetPoint" />
            <Array as="points">
              <mxPoint x="790" y="-70" />
              <mxPoint x="860" y="-70" />
            </Array>
            <mxPoint as="offset" />
          </mxGeometry>
        </mxCell>
        <mxCell id="Hf4WoeYFId2QkuosLSl_-65" value="*" style="edgeLabel;resizable=0;html=1;align=left;verticalAlign=bottom;" parent="Hf4WoeYFId2QkuosLSl_-64" connectable="0" vertex="1">
          <mxGeometry x="-1" relative="1" as="geometry">
            <mxPoint x="10" y="-80" as="offset" />
          </mxGeometry>
        </mxCell>
        <mxCell id="Hf4WoeYFId2QkuosLSl_-66" value="TicketEst" style="swimlane;fontStyle=1;align=center;verticalAlign=top;childLayout=stackLayout;horizontal=1;startSize=26;horizontalStack=0;resizeParent=1;resizeParentMax=0;resizeLast=0;collapsible=1;marginBottom=0;whiteSpace=wrap;html=1;" parent="1" vertex="1">
          <mxGeometry x="1930" y="-250" width="250" height="230" as="geometry">
            <mxRectangle x="1550" y="180" width="90" height="30" as="alternateBounds" />
          </mxGeometry>
        </mxCell>
        <mxCell id="Hf4WoeYFId2QkuosLSl_-67" value="&lt;div&gt;- idTicket : int&lt;br&gt;&lt;/div&gt;- patente : String&lt;div&gt;- fecha : String&lt;/div&gt;&lt;div&gt;- horaInicio : int&lt;/div&gt;&lt;div&gt;- horasTotales : int&lt;/div&gt;&lt;div&gt;- puntoVenta : PuntoVenta&lt;/div&gt;" style="text;strokeColor=none;fillColor=none;align=left;verticalAlign=top;spacingLeft=4;spacingRight=4;overflow=hidden;rotatable=0;points=[[0,0.5],[1,0.5]];portConstraint=eastwest;whiteSpace=wrap;html=1;" parent="Hf4WoeYFId2QkuosLSl_-66" vertex="1">
          <mxGeometry y="26" width="250" height="94" as="geometry" />
        </mxCell>
        <mxCell id="Hf4WoeYFId2QkuosLSl_-68" value="" style="line;strokeWidth=1;fillColor=none;align=left;verticalAlign=middle;spacingTop=-1;spacingLeft=3;spacingRight=3;rotatable=0;labelPosition=right;points=[];portConstraint=eastwest;strokeColor=inherit;" parent="Hf4WoeYFId2QkuosLSl_-66" vertex="1">
          <mxGeometry y="120" width="250" height="8" as="geometry" />
        </mxCell>
        <mxCell id="Hf4WoeYFId2QkuosLSl_-69" value="+ new(int,String, String, int, int, PuntoVenta)&lt;div&gt;+ getIdTicket() : int&lt;/div&gt;&lt;div&gt;+ getFecha() : int&lt;/div&gt;&lt;div&gt;+ getPatente() : String&lt;/div&gt;&lt;div&gt;+ getHoraInicio() : int&lt;/div&gt;&lt;div&gt;&lt;div&gt;+ getHoraMaxima() : int&lt;/div&gt;&lt;/div&gt;" style="text;strokeColor=none;fillColor=none;align=left;verticalAlign=top;spacingLeft=4;spacingRight=4;overflow=hidden;rotatable=0;points=[[0,0.5],[1,0.5]];portConstraint=eastwest;whiteSpace=wrap;html=1;" parent="Hf4WoeYFId2QkuosLSl_-66" vertex="1">
          <mxGeometry y="128" width="250" height="102" as="geometry" />
        </mxCell>
        <mxCell id="Hf4WoeYFId2QkuosLSl_-70" value="Use" style="endArrow=open;endSize=12;dashed=1;html=1;rounded=0;" parent="1" source="Hf4WoeYFId2QkuosLSl_-8" target="Hf4WoeYFId2QkuosLSl_-76" edge="1">
          <mxGeometry width="160" relative="1" as="geometry">
            <mxPoint x="110" y="1020" as="sourcePoint" />
            <mxPoint x="841.2341772151899" y="950" as="targetPoint" />
          </mxGeometry>
        </mxCell>
        <mxCell id="Hf4WoeYFId2QkuosLSl_-71" value="&lt;i&gt;RegistroEst&lt;/i&gt;" style="swimlane;fontStyle=1;align=center;verticalAlign=top;childLayout=stackLayout;horizontal=1;startSize=26;horizontalStack=0;resizeParent=1;resizeParentMax=0;resizeLast=0;collapsible=1;marginBottom=0;whiteSpace=wrap;html=1;" parent="1" vertex="1">
          <mxGeometry x="1190" y="170" width="170" height="230" as="geometry">
            <mxRectangle x="1260" y="280" width="100" height="30" as="alternateBounds" />
          </mxGeometry>
        </mxCell>
        <mxCell id="Hf4WoeYFId2QkuosLSl_-72" value="- patente : String&lt;div&gt;- horaInicio : int&lt;/div&gt;&lt;div&gt;- horaaFinal : int&lt;/div&gt;&lt;div&gt;- nTelefono : int&lt;/div&gt;" style="text;strokeColor=none;fillColor=none;align=left;verticalAlign=top;spacingLeft=4;spacingRight=4;overflow=hidden;rotatable=0;points=[[0,0.5],[1,0.5]];portConstraint=eastwest;whiteSpace=wrap;html=1;" parent="Hf4WoeYFId2QkuosLSl_-71" vertex="1">
          <mxGeometry y="26" width="170" height="64" as="geometry" />
        </mxCell>
        <mxCell id="Hf4WoeYFId2QkuosLSl_-73" value="" style="line;strokeWidth=1;fillColor=none;align=left;verticalAlign=middle;spacingTop=-1;spacingLeft=3;spacingRight=3;rotatable=0;labelPosition=right;points=[];portConstraint=eastwest;strokeColor=inherit;" parent="Hf4WoeYFId2QkuosLSl_-71" vertex="1">
          <mxGeometry y="90" width="170" height="8" as="geometry" />
        </mxCell>
        <mxCell id="Hf4WoeYFId2QkuosLSl_-74" value="&lt;p style=&quot;margin: 0px 0px 0px 4px;&quot;&gt;&lt;span style=&quot;background-color: initial;&quot;&gt;+ new():&lt;/span&gt;&lt;br&gt;&lt;/p&gt;&lt;p style=&quot;margin: 0px 0px 0px 4px;&quot;&gt;&lt;span style=&quot;background-color: initial;&quot;&gt;+ new(String, int):&lt;/span&gt;&lt;/p&gt;&lt;p style=&quot;margin: 0px 0px 0px 4px;&quot;&gt;+ getPatente() : String&lt;span style=&quot;background-color: initial;&quot;&gt;&lt;br&gt;&lt;/span&gt;&lt;/p&gt;&lt;p style=&quot;margin: 0px 0px 0px 4px;&quot;&gt;+ getHoraFin() : Int&lt;br&gt;&lt;/p&gt;&lt;p style=&quot;margin: 0px 0px 0px 4px;&quot;&gt;&lt;span style=&quot;background-color: initial;&quot;&gt;+ getNTelefono() : int&lt;/span&gt;&lt;br&gt;&lt;/p&gt;&lt;p style=&quot;margin: 0px 0px 0px 4px;&quot;&gt;+ getHoraInicio() : Int&lt;/p&gt;&lt;p style=&quot;margin: 0px 0px 0px 4px;&quot;&gt;+ setHoraFinal(int):void&amp;nbsp;&lt;/p&gt;&lt;p style=&quot;margin: 0px 0px 0px 4px;&quot;&gt;+ setNTelefono(int):void&lt;/p&gt;&lt;p style=&quot;margin: 0px 0px 0px 4px;&quot;&gt;&lt;br&gt;&lt;/p&gt;" style="text;strokeColor=none;fillColor=none;align=left;verticalAlign=top;spacingLeft=4;spacingRight=4;overflow=hidden;rotatable=0;points=[[0,0.5],[1,0.5]];portConstraint=eastwest;whiteSpace=wrap;html=1;" parent="Hf4WoeYFId2QkuosLSl_-71" vertex="1">
          <mxGeometry y="98" width="170" height="132" as="geometry" />
        </mxCell>
        <mxCell id="Hf4WoeYFId2QkuosLSl_-75" value="&lt;p style=&quot;margin:0px;margin-top:4px;text-align:center;&quot;&gt;&lt;i&gt;&amp;lt;&amp;lt;Interface&amp;gt;&amp;gt;&lt;/i&gt;&lt;br&gt;&lt;b&gt;Modo&lt;/b&gt;&lt;/p&gt;&lt;hr size=&quot;1&quot; style=&quot;border-style:solid;&quot;&gt;&lt;p style=&quot;margin:0px;margin-left:4px;&quot;&gt;+ cambiarModo(AppUsuario)&lt;br&gt;+ estaManejando()&lt;/p&gt;&lt;p style=&quot;margin:0px;margin-left:4px;&quot;&gt;+ estaCaminando()&lt;/p&gt;&lt;p style=&quot;margin:0px;margin-left:4px;&quot;&gt;+ InicioDeEstacionamiento(String)&lt;br&gt;+ finDeEstacionamiento()&amp;nbsp;&lt;br&gt;&lt;/p&gt;&lt;p style=&quot;margin:0px;margin-left:4px;&quot;&gt;+ notificarSensorApagado(AppUsuario)&lt;/p&gt;" style="verticalAlign=top;align=left;overflow=fill;html=1;whiteSpace=wrap;" parent="1" vertex="1">
          <mxGeometry x="1190" y="640" width="270" height="140" as="geometry" />
        </mxCell>
        <mxCell id="Hf4WoeYFId2QkuosLSl_-76" value="&lt;p style=&quot;margin:0px;margin-top:4px;text-align:center;&quot;&gt;&lt;i&gt;&amp;lt;&amp;lt;Interface&amp;gt;&amp;gt;&lt;/i&gt;&lt;br&gt;&lt;b&gt;MovementSensor&lt;/b&gt;&lt;/p&gt;&lt;hr size=&quot;1&quot; style=&quot;border-style:solid;&quot;&gt;&lt;p style=&quot;margin:0px;margin-left:4px;&quot;&gt;+ driving ()&amp;nbsp;&lt;/p&gt;&lt;div&gt;+ walking ()&amp;nbsp;&lt;/div&gt;" style="verticalAlign=top;align=left;overflow=fill;html=1;whiteSpace=wrap;" parent="1" vertex="1">
          <mxGeometry x="840" y="670" width="120" height="80" as="geometry" />
        </mxCell>
        <mxCell id="Hf4WoeYFId2QkuosLSl_-77" value="&lt;span style=&quot;text-align: center;&quot;&gt;listaDeInfracciones&lt;/span&gt;" style="endArrow=block;endFill=1;html=1;edgeStyle=orthogonalEdgeStyle;align=left;verticalAlign=top;rounded=0;" parent="1" source="Hf4WoeYFId2QkuosLSl_-12" target="Hf4WoeYFId2QkuosLSl_-16" edge="1">
          <mxGeometry x="-0.3962" y="10" relative="1" as="geometry">
            <mxPoint x="890" y="-70" as="sourcePoint" />
            <mxPoint x="1280" y="30" as="targetPoint" />
            <Array as="points">
              <mxPoint x="1280" y="10" />
            </Array>
            <mxPoint as="offset" />
          </mxGeometry>
        </mxCell>
        <mxCell id="Hf4WoeYFId2QkuosLSl_-78" value="*" style="text;html=1;align=center;verticalAlign=middle;resizable=0;points=[];autosize=1;strokeColor=none;fillColor=none;" parent="1" vertex="1">
          <mxGeometry x="1240" y="-120" width="30" height="30" as="geometry" />
        </mxCell>
        <mxCell id="Hf4WoeYFId2QkuosLSl_-79" value="Observadores" style="endArrow=block;endFill=1;html=1;edgeStyle=orthogonalEdgeStyle;align=left;verticalAlign=top;rounded=0;" parent="1" source="Hf4WoeYFId2QkuosLSl_-80" target="Hf4WoeYFId2QkuosLSl_-12" edge="1">
          <mxGeometry x="-0.1429" y="5" relative="1" as="geometry">
            <mxPoint x="420" y="-355" as="sourcePoint" />
            <mxPoint x="670" y="-280" as="targetPoint" />
            <mxPoint as="offset" />
          </mxGeometry>
        </mxCell>
        <mxCell id="Hf4WoeYFId2QkuosLSl_-80" value="&lt;p style=&quot;margin:0px;margin-top:4px;text-align:center;&quot;&gt;&lt;i&gt;&amp;lt;&amp;lt;Interface&amp;gt;&amp;gt;&lt;/i&gt;&lt;br&gt;&lt;b&gt;Observadores&lt;/b&gt;&lt;/p&gt;&lt;hr size=&quot;1&quot; style=&quot;border-style:solid;&quot;&gt;&lt;p style=&quot;margin:0px;margin-left:4px;&quot;&gt;+ update(SEM, Object)&amp;nbsp;&lt;/p&gt;&lt;p style=&quot;margin:0px;margin-left:4px;&quot;&gt;+ getState(SEM)&lt;/p&gt;" style="verticalAlign=top;align=left;overflow=fill;html=1;whiteSpace=wrap;" parent="1" vertex="1">
          <mxGeometry x="270" y="-420" width="190" height="80" as="geometry" />
        </mxCell>
        <mxCell id="Hf4WoeYFId2QkuosLSl_-81" value="&lt;i&gt;&lt;b&gt;SensorMovimiento&lt;/b&gt;&lt;/i&gt;" style="swimlane;fontStyle=0;childLayout=stackLayout;horizontal=1;startSize=26;fillColor=none;horizontalStack=0;resizeParent=1;resizeParentMax=0;resizeLast=0;collapsible=1;marginBottom=0;whiteSpace=wrap;html=1;" parent="1" vertex="1">
          <mxGeometry x="1010" y="1040" width="210" height="130" as="geometry" />
        </mxCell>
        <mxCell id="Hf4WoeYFId2QkuosLSl_-82" value="+ encender(AppUsuario): void" style="text;strokeColor=none;fillColor=none;align=left;verticalAlign=top;spacingLeft=4;spacingRight=4;overflow=hidden;rotatable=0;points=[[0,0.5],[1,0.5]];portConstraint=eastwest;whiteSpace=wrap;html=1;" parent="Hf4WoeYFId2QkuosLSl_-81" vertex="1">
          <mxGeometry y="26" width="210" height="26" as="geometry" />
        </mxCell>
        <mxCell id="Hf4WoeYFId2QkuosLSl_-83" value="+ apagarSensor(AppUsuario): void" style="text;strokeColor=none;fillColor=none;align=left;verticalAlign=top;spacingLeft=4;spacingRight=4;overflow=hidden;rotatable=0;points=[[0,0.5],[1,0.5]];portConstraint=eastwest;whiteSpace=wrap;html=1;" parent="Hf4WoeYFId2QkuosLSl_-81" vertex="1">
          <mxGeometry y="52" width="210" height="26" as="geometry" />
        </mxCell>
        <mxCell id="Hf4WoeYFId2QkuosLSl_-84" value="+ estaCaminando(AppUsuario) : void" style="text;strokeColor=none;fillColor=none;align=left;verticalAlign=top;spacingLeft=4;spacingRight=4;overflow=hidden;rotatable=0;points=[[0,0.5],[1,0.5]];portConstraint=eastwest;whiteSpace=wrap;html=1;" parent="Hf4WoeYFId2QkuosLSl_-81" vertex="1">
          <mxGeometry y="78" width="210" height="26" as="geometry" />
        </mxCell>
        <mxCell id="Hf4WoeYFId2QkuosLSl_-85" value="+ estaManejando(AppUsuario) : void" style="text;strokeColor=none;fillColor=none;align=left;verticalAlign=top;spacingLeft=4;spacingRight=4;overflow=hidden;rotatable=0;points=[[0,0.5],[1,0.5]];portConstraint=eastwest;whiteSpace=wrap;html=1;" parent="Hf4WoeYFId2QkuosLSl_-81" vertex="1">
          <mxGeometry y="104" width="210" height="26" as="geometry" />
        </mxCell>
        <mxCell id="Hf4WoeYFId2QkuosLSl_-86" value="sensorMovimiento" style="endArrow=block;endFill=1;html=1;edgeStyle=orthogonalEdgeStyle;align=left;verticalAlign=top;rounded=0;" parent="1" source="Hf4WoeYFId2QkuosLSl_-11" target="Hf4WoeYFId2QkuosLSl_-81" edge="1">
          <mxGeometry x="0.0296" y="-35" relative="1" as="geometry">
            <mxPoint x="800" y="1000" as="sourcePoint" />
            <mxPoint x="840" y="1020" as="targetPoint" />
            <Array as="points" />
            <mxPoint as="offset" />
          </mxGeometry>
        </mxCell>
        <mxCell id="Hf4WoeYFId2QkuosLSl_-87" value="Apagado" style="swimlane;fontStyle=0;childLayout=stackLayout;horizontal=1;startSize=26;fillColor=none;horizontalStack=0;resizeParent=1;resizeParentMax=0;resizeLast=0;collapsible=1;marginBottom=0;whiteSpace=wrap;html=1;" parent="1" vertex="1">
          <mxGeometry x="690" y="1260" width="190" height="52" as="geometry" />
        </mxCell>
        <mxCell id="Hf4WoeYFId2QkuosLSl_-88" value="+ encender(AppUsuario): void" style="text;strokeColor=none;fillColor=none;align=left;verticalAlign=top;spacingLeft=4;spacingRight=4;overflow=hidden;rotatable=0;points=[[0,0.5],[1,0.5]];portConstraint=eastwest;whiteSpace=wrap;html=1;" parent="Hf4WoeYFId2QkuosLSl_-87" vertex="1">
          <mxGeometry y="26" width="190" height="26" as="geometry" />
        </mxCell>
        <mxCell id="Hf4WoeYFId2QkuosLSl_-89" value="Encendido" style="swimlane;fontStyle=0;childLayout=stackLayout;horizontal=1;startSize=26;fillColor=none;horizontalStack=0;resizeParent=1;resizeParentMax=0;resizeLast=0;collapsible=1;marginBottom=0;whiteSpace=wrap;html=1;" parent="1" vertex="1">
          <mxGeometry x="910" y="1260" width="210" height="78" as="geometry" />
        </mxCell>
        <mxCell id="Hf4WoeYFId2QkuosLSl_-90" value="+ estaCaminando(AppUsuario): void" style="text;strokeColor=none;fillColor=none;align=left;verticalAlign=top;spacingLeft=4;spacingRight=4;overflow=hidden;rotatable=0;points=[[0,0.5],[1,0.5]];portConstraint=eastwest;whiteSpace=wrap;html=1;" parent="Hf4WoeYFId2QkuosLSl_-89" vertex="1">
          <mxGeometry y="26" width="210" height="26" as="geometry" />
        </mxCell>
        <mxCell id="Hf4WoeYFId2QkuosLSl_-91" value="+ estaManejando(AppUsuario): void" style="text;strokeColor=none;fillColor=none;align=left;verticalAlign=top;spacingLeft=4;spacingRight=4;overflow=hidden;rotatable=0;points=[[0,0.5],[1,0.5]];portConstraint=eastwest;whiteSpace=wrap;html=1;" parent="Hf4WoeYFId2QkuosLSl_-89" vertex="1">
          <mxGeometry y="52" width="210" height="26" as="geometry" />
        </mxCell>
        <mxCell id="Hf4WoeYFId2QkuosLSl_-92" value="Caminando" style="swimlane;fontStyle=0;childLayout=stackLayout;horizontal=1;startSize=26;fillColor=none;horizontalStack=0;resizeParent=1;resizeParentMax=0;resizeLast=0;collapsible=1;marginBottom=0;whiteSpace=wrap;html=1;" parent="1" vertex="1">
          <mxGeometry x="1170" y="1260" width="210" height="78" as="geometry" />
        </mxCell>
        <mxCell id="Hf4WoeYFId2QkuosLSl_-93" value="+ estaCaminando(AppUsuario): void" style="text;strokeColor=none;fillColor=none;align=left;verticalAlign=top;spacingLeft=4;spacingRight=4;overflow=hidden;rotatable=0;points=[[0,0.5],[1,0.5]];portConstraint=eastwest;whiteSpace=wrap;html=1;" parent="Hf4WoeYFId2QkuosLSl_-92" vertex="1">
          <mxGeometry y="26" width="210" height="26" as="geometry" />
        </mxCell>
        <mxCell id="Hf4WoeYFId2QkuosLSl_-94" value="+ estaManejando(AppUsuario): void" style="text;strokeColor=none;fillColor=none;align=left;verticalAlign=top;spacingLeft=4;spacingRight=4;overflow=hidden;rotatable=0;points=[[0,0.5],[1,0.5]];portConstraint=eastwest;whiteSpace=wrap;html=1;" parent="Hf4WoeYFId2QkuosLSl_-92" vertex="1">
          <mxGeometry y="52" width="210" height="26" as="geometry" />
        </mxCell>
        <mxCell id="Hf4WoeYFId2QkuosLSl_-95" value="Manejando" style="swimlane;fontStyle=0;childLayout=stackLayout;horizontal=1;startSize=26;fillColor=none;horizontalStack=0;resizeParent=1;resizeParentMax=0;resizeLast=0;collapsible=1;marginBottom=0;whiteSpace=wrap;html=1;" parent="1" vertex="1">
          <mxGeometry x="1430" y="1260" width="210" height="78" as="geometry" />
        </mxCell>
        <mxCell id="Hf4WoeYFId2QkuosLSl_-96" value="+ estaCaminando(AppUsuario): void" style="text;strokeColor=none;fillColor=none;align=left;verticalAlign=top;spacingLeft=4;spacingRight=4;overflow=hidden;rotatable=0;points=[[0,0.5],[1,0.5]];portConstraint=eastwest;whiteSpace=wrap;html=1;" parent="Hf4WoeYFId2QkuosLSl_-95" vertex="1">
          <mxGeometry y="26" width="210" height="26" as="geometry" />
        </mxCell>
        <mxCell id="Hf4WoeYFId2QkuosLSl_-97" value="+ estaManejando(AppUsuario): void" style="text;strokeColor=none;fillColor=none;align=left;verticalAlign=top;spacingLeft=4;spacingRight=4;overflow=hidden;rotatable=0;points=[[0,0.5],[1,0.5]];portConstraint=eastwest;whiteSpace=wrap;html=1;" parent="Hf4WoeYFId2QkuosLSl_-95" vertex="1">
          <mxGeometry y="52" width="210" height="26" as="geometry" />
        </mxCell>
        <mxCell id="Hf4WoeYFId2QkuosLSl_-98" value="RegistroEstApp" style="swimlane;fontStyle=1;align=center;verticalAlign=top;childLayout=stackLayout;horizontal=1;startSize=26;horizontalStack=0;resizeParent=1;resizeParentMax=0;resizeLast=0;collapsible=1;marginBottom=0;whiteSpace=wrap;html=1;" parent="1" vertex="1">
          <mxGeometry x="1460" y="360" width="180" height="60" as="geometry" />
        </mxCell>
        <mxCell id="Hf4WoeYFId2QkuosLSl_-99" value="" style="line;strokeWidth=1;fillColor=none;align=left;verticalAlign=middle;spacingTop=-1;spacingLeft=3;spacingRight=3;rotatable=0;labelPosition=right;points=[];portConstraint=eastwest;strokeColor=inherit;" parent="Hf4WoeYFId2QkuosLSl_-98" vertex="1">
          <mxGeometry y="26" width="180" height="8" as="geometry" />
        </mxCell>
        <mxCell id="Hf4WoeYFId2QkuosLSl_-100" value="+ new(String, int, int, double)" style="text;strokeColor=none;fillColor=none;align=left;verticalAlign=top;spacingLeft=4;spacingRight=4;overflow=hidden;rotatable=0;points=[[0,0.5],[1,0.5]];portConstraint=eastwest;whiteSpace=wrap;html=1;" parent="Hf4WoeYFId2QkuosLSl_-98" vertex="1">
          <mxGeometry y="34" width="180" height="26" as="geometry" />
        </mxCell>
        <mxCell id="Hf4WoeYFId2QkuosLSl_-101" value="RegistroEstPV" style="swimlane;fontStyle=1;align=center;verticalAlign=top;childLayout=stackLayout;horizontal=1;startSize=26;horizontalStack=0;resizeParent=1;resizeParentMax=0;resizeLast=0;collapsible=1;marginBottom=0;whiteSpace=wrap;html=1;" parent="1" vertex="1">
          <mxGeometry x="1455" y="170" width="160" height="60" as="geometry" />
        </mxCell>
        <mxCell id="Hf4WoeYFId2QkuosLSl_-102" value="" style="line;strokeWidth=1;fillColor=none;align=left;verticalAlign=middle;spacingTop=-1;spacingLeft=3;spacingRight=3;rotatable=0;labelPosition=right;points=[];portConstraint=eastwest;strokeColor=inherit;" parent="Hf4WoeYFId2QkuosLSl_-101" vertex="1">
          <mxGeometry y="26" width="160" height="8" as="geometry" />
        </mxCell>
        <mxCell id="Hf4WoeYFId2QkuosLSl_-103" value="+ new(String, int, int)" style="text;strokeColor=none;fillColor=none;align=left;verticalAlign=top;spacingLeft=4;spacingRight=4;overflow=hidden;rotatable=0;points=[[0,0.5],[1,0.5]];portConstraint=eastwest;whiteSpace=wrap;html=1;" parent="Hf4WoeYFId2QkuosLSl_-101" vertex="1">
          <mxGeometry y="34" width="160" height="26" as="geometry" />
        </mxCell>
        <mxCell id="Hf4WoeYFId2QkuosLSl_-104" value="" style="endArrow=block;endSize=10;endFill=0;shadow=0;strokeWidth=1;rounded=0;curved=0;edgeStyle=elbowEdgeStyle;elbow=vertical;" parent="1" source="Hf4WoeYFId2QkuosLSl_-98" target="Hf4WoeYFId2QkuosLSl_-71" edge="1">
          <mxGeometry width="160" relative="1" as="geometry">
            <mxPoint x="1730" y="540" as="sourcePoint" />
            <mxPoint x="1950" y="320" as="targetPoint" />
            <Array as="points">
              <mxPoint x="1530" y="320" />
              <mxPoint x="1750" y="260" />
              <mxPoint x="1530" y="-10" />
            </Array>
          </mxGeometry>
        </mxCell>
        <mxCell id="Hf4WoeYFId2QkuosLSl_-105" value="" style="endArrow=block;endSize=10;endFill=0;shadow=0;strokeWidth=1;rounded=0;curved=0;edgeStyle=elbowEdgeStyle;elbow=vertical;" parent="1" source="Hf4WoeYFId2QkuosLSl_-101" target="Hf4WoeYFId2QkuosLSl_-71" edge="1">
          <mxGeometry width="160" relative="1" as="geometry">
            <mxPoint x="1680" y="230" as="sourcePoint" />
            <mxPoint x="1900" y="10" as="targetPoint" />
            <Array as="points">
              <mxPoint x="1535" y="270" />
              <mxPoint x="1700" y="-50" />
              <mxPoint x="1480" y="-320" />
            </Array>
          </mxGeometry>
        </mxCell>
        <mxCell id="Hf4WoeYFId2QkuosLSl_-106" value="" style="endArrow=block;endSize=10;endFill=0;shadow=0;strokeWidth=1;rounded=0;curved=0;edgeStyle=elbowEdgeStyle;elbow=vertical;" parent="1" source="Hf4WoeYFId2QkuosLSl_-95" target="Hf4WoeYFId2QkuosLSl_-81" edge="1">
          <mxGeometry width="160" relative="1" as="geometry">
            <mxPoint x="1380" y="1150" as="sourcePoint" />
            <mxPoint x="1600" y="930" as="targetPoint" />
            <Array as="points">
              <mxPoint x="1280" y="1210" />
              <mxPoint x="1400" y="870" />
              <mxPoint x="1180" y="600" />
            </Array>
          </mxGeometry>
        </mxCell>
        <mxCell id="Hf4WoeYFId2QkuosLSl_-107" value="" style="endArrow=block;endSize=10;endFill=0;shadow=0;strokeWidth=1;rounded=0;curved=0;edgeStyle=elbowEdgeStyle;elbow=vertical;" parent="1" source="Hf4WoeYFId2QkuosLSl_-92" target="Hf4WoeYFId2QkuosLSl_-81" edge="1">
          <mxGeometry width="160" relative="1" as="geometry">
            <mxPoint x="1310" y="1140" as="sourcePoint" />
            <mxPoint x="1530" y="920" as="targetPoint" />
            <Array as="points">
              <mxPoint x="1230" y="1210" />
              <mxPoint x="1330" y="860" />
              <mxPoint x="1110" y="590" />
            </Array>
          </mxGeometry>
        </mxCell>
        <mxCell id="Hf4WoeYFId2QkuosLSl_-108" value="" style="endArrow=block;endSize=10;endFill=0;shadow=0;strokeWidth=1;rounded=0;curved=0;edgeStyle=elbowEdgeStyle;elbow=vertical;" parent="1" source="Hf4WoeYFId2QkuosLSl_-89" target="Hf4WoeYFId2QkuosLSl_-81" edge="1">
          <mxGeometry width="160" relative="1" as="geometry">
            <mxPoint x="980" y="1220" as="sourcePoint" />
            <mxPoint x="1200" y="1000" as="targetPoint" />
            <Array as="points">
              <mxPoint x="1115" y="1190" />
              <mxPoint x="1000" y="940" />
              <mxPoint x="780" y="670" />
            </Array>
          </mxGeometry>
        </mxCell>
        <mxCell id="Hf4WoeYFId2QkuosLSl_-109" value="" style="endArrow=block;endSize=10;endFill=0;shadow=0;strokeWidth=1;rounded=0;curved=0;edgeStyle=elbowEdgeStyle;elbow=vertical;" parent="1" source="Hf4WoeYFId2QkuosLSl_-87" target="Hf4WoeYFId2QkuosLSl_-81" edge="1">
          <mxGeometry width="160" relative="1" as="geometry">
            <mxPoint x="870" y="1180" as="sourcePoint" />
            <mxPoint x="1090" y="960" as="targetPoint" />
            <Array as="points">
              <mxPoint x="980" y="1210" />
              <mxPoint x="890" y="900" />
              <mxPoint x="670" y="630" />
            </Array>
          </mxGeometry>
        </mxCell>
      </root>
    </mxGraphModel>
  </diagram>
</mxfile>
